<svg xmlns="http://www.w3.org/2000/svg" viewBox="0 0 880 420" role="img" aria-label="Observed predictability gradient">
  <rect width="880" height="420" fill="#ffffff"/>
  <g stroke="#eeeeee" stroke-width="0.7">
    <line x1="90" y1="345" x2="790" y2="345"/>
    <line x1="90" y1="285" x2="790" y2="285"/>
    <line x1="90" y1="225" x2="790" y2="225"/>
    <line x1="90" y1="165" x2="790" y2="165"/>
    <line x1="90" y1="105" x2="790" y2="105"/>
    <line x1="90" y1="45" x2="790" y2="45"/>
    <line x1="90" y1="45" x2="90" y2="345"/>
    <line x1="323" y1="45" x2="323" y2="345"/>
    <line x1="556" y1="45" x2="556" y2="345"/>
    <line x1="790" y1="45" x2="790" y2="345"/>
  </g>
  <line x1="90" y1="345" x2="790" y2="345" stroke="#c4c4c4" stroke-width="1"/>
  <line x1="90" y1="45" x2="90" y2="345" stroke="#c4c4c4" stroke-width="1"/>

  <g font-family="Helvetica, Arial, sans-serif">
    <text x="440" y="26" text-anchor="middle" font-size="15" fill="#555" font-style="italic">attention gain collapses as held-out clades move farther away</text>
    <text x="440" y="394" text-anchor="middle" font-size="11.5" fill="#888" letter-spacing=".04em">taxonomic holdout regime</text>
    <text x="32" y="195" transform="rotate(-90,32,195)" text-anchor="middle" font-size="11.5" fill="#888" letter-spacing=".04em">Delta F1: attention - mean</text>
    <text x="150" y="366" text-anchor="middle" font-size="12" fill="#777">species</text>
    <text x="385" y="366" text-anchor="middle" font-size="12" fill="#777">genus</text>
    <text x="620" y="366" text-anchor="middle" font-size="12" fill="#777">family</text>
    <text x="80" y="349" text-anchor="end" font-size="10" fill="#aaa">0</text>
    <text x="80" y="289" text-anchor="end" font-size="10" fill="#aaa">.02</text>
    <text x="80" y="229" text-anchor="end" font-size="10" fill="#aaa">.04</text>
    <text x="80" y="169" text-anchor="end" font-size="10" fill="#aaa">.06</text>
    <text x="80" y="109" text-anchor="end" font-size="10" fill="#aaa">.08</text>
  </g>

  <!-- y = 345 - value/0.10*300 -->
  <polyline points="150,282 385,297 620,318" fill="none" stroke="#2ca6a4" stroke-width="2.5" stroke-linecap="round"/>
  <polyline points="150,96 385,144 620,315" fill="none" stroke="#e8763a" stroke-width="2.5" stroke-linecap="round"/>
  <g>
    <circle cx="150" cy="282" r="4.2" fill="#2ca6a4" stroke="#fff" stroke-width="1.2"/>
    <circle cx="385" cy="297" r="4.2" fill="#2ca6a4" stroke="#fff" stroke-width="1.2"/>
    <circle cx="620" cy="318" r="4.2" fill="#2ca6a4" stroke="#fff" stroke-width="1.2"/>
    <circle cx="150" cy="96" r="4.2" fill="#e8763a" stroke="#fff" stroke-width="1.2"/>
    <circle cx="385" cy="144" r="4.2" fill="#e8763a" stroke="#fff" stroke-width="1.2"/>
    <circle cx="620" cy="315" r="4.2" fill="#e8763a" stroke="#fff" stroke-width="1.2"/>
  </g>
  <g font-family="Helvetica, Arial, sans-serif" font-size="11">
    <text x="164" y="278" fill="#2ca6a4">+0.021</text>
    <text x="399" y="293" fill="#2ca6a4">+0.016</text>
    <text x="600" y="338" fill="#2ca6a4">+0.009</text>
    <text x="164" y="92" fill="#e8763a" font-weight="600">+0.083</text>
    <text x="399" y="140" fill="#e8763a" font-weight="600">+0.067</text>
    <text x="646" y="302" fill="#e8763a" font-weight="600">+0.010</text>
    <line x1="650" y1="66" x2="690" y2="66" stroke="#e8763a" stroke-width="2.5"/>
    <circle cx="670" cy="66" r="3.5" fill="#e8763a" stroke="#fff"/>
    <text x="700" y="70" fill="#555">machinery</text>
    <line x1="650" y1="88" x2="690" y2="88" stroke="#2ca6a4" stroke-width="2.5"/>
    <circle cx="670" cy="88" r="3.5" fill="#2ca6a4" stroke="#fff"/>
    <text x="700" y="92" fill="#555">compositional</text>
  </g>
</svg>
