<svg xmlns="http://www.w3.org/2000/svg" viewBox="0 0 880 420" role="img" aria-label="Pathogenicity attention validation">
  <rect width="880" height="420" fill="#ffffff"/>
  <g stroke="#eeeeee" stroke-width="0.7">
    <line x1="80" y1="350" x2="800" y2="350"/>
    <line x1="80" y1="280" x2="800" y2="280"/>
    <line x1="80" y1="210" x2="800" y2="210"/>
    <line x1="80" y1="140" x2="800" y2="140"/>
    <line x1="80" y1="70" x2="800" y2="70"/>
    <line x1="440" y1="55" x2="440" y2="365"/>
  </g>
  <g font-family="Helvetica, Arial, sans-serif">
    <text x="440" y="30" text-anchor="middle" font-size="15" fill="#555" font-style="italic">the selected proteins are enriched for virulence and affect the prediction</text>
    <text x="250" y="72" text-anchor="middle" font-size="14" font-weight="600" fill="#e8763a">external enrichment</text>
    <text x="630" y="72" text-anchor="middle" font-size="14" font-weight="600" fill="#d64070">causal ablation</text>
  </g>

  <!-- left bar chart -->
  <line x1="125" y1="315" x2="375" y2="315" stroke="#c4c4c4"/>
  <line x1="125" y1="105" x2="125" y2="315" stroke="#c4c4c4"/>
  <g fill="#e8763a" opacity="0.85">
    <rect x="175" y="118" width="58" height="197" rx="2"/>
  </g>
  <g fill="#999" opacity="0.45">
    <rect x="275" y="274" width="58" height="41" rx="2"/>
  </g>
  <g font-family="Helvetica, Arial, sans-serif">
    <text x="204" y="110" text-anchor="middle" font-size="12" fill="#e8763a" font-weight="600">28.1%</text>
    <text x="304" y="266" text-anchor="middle" font-size="12" fill="#777">5.9%</text>
    <text x="204" y="337" text-anchor="middle" font-size="10.5" fill="#777">top-5</text>
    <text x="304" y="337" text-anchor="middle" font-size="10.5" fill="#777">random</text>
    <text x="250" y="365" text-anchor="middle" font-size="11" fill="#888">VFDB hits, paired within genome</text>
    <text x="250" y="386" text-anchor="middle" font-size="11" fill="#888">Wilcoxon p = 2.5e-7</text>
  </g>

  <!-- right ablation chart -->
  <line x1="505" y1="315" x2="755" y2="315" stroke="#c4c4c4"/>
  <line x1="505" y1="105" x2="505" y2="315" stroke="#c4c4c4"/>
  <path d="M540 292 C585 282, 620 270, 655 172" fill="none" stroke="#d64070" stroke-width="2.4" stroke-linecap="round"/>
  <circle cx="540" cy="292" r="4.2" fill="#999" stroke="#fff"/>
  <circle cx="655" cy="172" r="5" fill="#d64070" stroke="#fff" stroke-width="1.2"/>
  <line x1="655" y1="172" x2="655" y2="315" stroke="#d64070" stroke-width="1" stroke-dasharray="4 3" opacity="0.65"/>
  <g font-family="Helvetica, Arial, sans-serif">
    <text x="655" y="160" text-anchor="middle" font-size="12" fill="#d64070" font-weight="600">22.7%</text>
    <text x="540" y="285" text-anchor="middle" font-size="11" fill="#777">random</text>
    <text x="655" y="337" text-anchor="middle" font-size="10.5" fill="#777">mask top-5</text>
    <text x="630" y="365" text-anchor="middle" font-size="11" fill="#888">pathogenic calls flipped</text>
    <text x="630" y="386" text-anchor="middle" font-size="11" fill="#888">vs random masking, p = 1.2e-4</text>
  </g>

  <!-- attention mini-spectrum -->
  <g transform="translate(142 84)">
    <text x="0" y="0" font-family="Helvetica, Arial, sans-serif" font-size="10.5" fill="#999">attention mass concentrates on five proteins</text>
    <circle cx="0" cy="20" r="9" fill="#e8763a" opacity="0.9"/>
    <circle cx="28" cy="20" r="7" fill="#e8763a" opacity="0.75"/>
    <circle cx="52" cy="20" r="5.8" fill="#e8763a" opacity="0.62"/>
    <circle cx="72" cy="20" r="4.6" fill="#e8763a" opacity="0.5"/>
    <circle cx="90" cy="20" r="3.8" fill="#e8763a" opacity="0.42"/>
    <text x="115" y="24" font-family="Helvetica, Arial, sans-serif" font-size="10.5" fill="#777">81%</text>
  </g>
</svg>
