<svg xmlns="http://www.w3.org/2000/svg" viewBox="0 0 880 430" role="img" aria-label="Localization score predicts attention gain">
<rect width="880" height="430" fill="#fff"/>
<g stroke="#eeeeee" stroke-width="0.7">
<line x1="95" y1="345.0" x2="790" y2="345.0"/>
<line x1="95.0" y1="65" x2="95.0" y2="345"/>
<line x1="95" y1="289.0" x2="790" y2="289.0"/>
<line x1="234.0" y1="65" x2="234.0" y2="345"/>
<line x1="95" y1="233.0" x2="790" y2="233.0"/>
<line x1="373.0" y1="65" x2="373.0" y2="345"/>
<line x1="95" y1="177.0" x2="790" y2="177.0"/>
<line x1="512.0" y1="65" x2="512.0" y2="345"/>
<line x1="95" y1="121.0" x2="790" y2="121.0"/>
<line x1="651.0" y1="65" x2="651.0" y2="345"/>
<line x1="95" y1="65.0" x2="790" y2="65.0"/>
<line x1="790.0" y1="65" x2="790.0" y2="345"/>
</g>
<line x1="95" y1="345" x2="790" y2="345" stroke="#c4c4c4"/>
<line x1="95" y1="65" x2="95" y2="345" stroke="#c4c4c4"/>
<text x="440" y="32" text-anchor="middle" font-family="Helvetica,Arial,sans-serif" font-size="15" fill="#555" font-style="italic">preliminary gene-family localization audit tracks adaptive pooling gain</text>
<text x="440" y="397" text-anchor="middle" font-family="Helvetica,Arial,sans-serif" font-size="11.5" fill="#888" letter-spacing=".04em">gene-family localization: top-10 association share</text>
<text x="30" y="205" transform="rotate(-90,30,205)" text-anchor="middle" font-family="Helvetica,Arial,sans-serif" font-size="11.5" fill="#888" letter-spacing=".04em">species-level attention gain</text>
<circle cx="684.0" cy="279.4" r="4.5" fill="#2ca6a4" stroke="#fff" stroke-width="1.2"/>
<circle cx="674.0" cy="298.5" r="5.5" fill="#e8763a" stroke="#fff" stroke-width="1.2"/>
<circle cx="656.2" cy="309.1" r="4.5" fill="#2ca6a4" stroke="#fff" stroke-width="1.2"/>
<circle cx="621.6" cy="88.6" r="5.5" fill="#e8763a" stroke="#fff" stroke-width="1.2"/>
<text x="493.6" y="110.6" font-family="Helvetica,Arial,sans-serif" font-size="10.5" fill="#e8763a">pathogenicity animal</text>
<circle cx="592.1" cy="321.6" r="4.5" fill="#2ca6a4" stroke="#fff" stroke-width="1.2"/>
<circle cx="574.4" cy="179.3" r="5.5" fill="#e8763a" stroke="#fff" stroke-width="1.2"/>
<text x="582.4" y="173.3" font-family="Helvetica,Arial,sans-serif" font-size="10.5" fill="#e8763a">pathogenicity human</text>
<circle cx="551.0" cy="314.5" r="4.5" fill="#2ca6a4" stroke="#fff" stroke-width="1.2"/>
<circle cx="507.4" cy="313.8" r="4.5" fill="#2ca6a4" stroke="#fff" stroke-width="1.2"/>
<circle cx="505.1" cy="302.1" r="4.5" fill="#2ca6a4" stroke="#fff" stroke-width="1.2"/>
<circle cx="487.3" cy="317.7" r="4.5" fill="#2ca6a4" stroke="#fff" stroke-width="1.2"/>
<circle cx="486.6" cy="321.2" r="4.5" fill="#2ca6a4" stroke="#fff" stroke-width="1.2"/>
<circle cx="468.2" cy="322.4" r="4.5" fill="#2ca6a4" stroke="#fff" stroke-width="1.2"/>
<circle cx="432.8" cy="309.1" r="4.5" fill="#2ca6a4" stroke="#fff" stroke-width="1.2"/>
<circle cx="431.0" cy="295.9" r="4.5" fill="#2ca6a4" stroke="#fff" stroke-width="1.2"/>
<circle cx="386.8" cy="323.4" r="4.5" fill="#999999" stroke="#fff" stroke-width="1.2"/>
<circle cx="367.8" cy="310.7" r="4.5" fill="#999999" stroke="#fff" stroke-width="1.2"/>
<g font-family="Helvetica,Arial,sans-serif" font-size="11" fill="#555">
<circle cx="145" cy="82" r="4.5" fill="#e8763a" stroke="#fff"/>
<text x="165" y="86">machinery</text>
<circle cx="145" cy="104" r="4.5" fill="#2ca6a4" stroke="#fff"/>
<text x="165" y="108">compositional</text>
<text x="145" y="134" font-style="italic">Spearman rho = 0.447, p = 0.083</text>
</g>
<text x="95.0" y="364" text-anchor="middle" font-family="Helvetica,Arial,sans-serif" font-size="10" fill="#aaa">0.0000</text>
<text x="268.8" y="364" text-anchor="middle" font-family="Helvetica,Arial,sans-serif" font-size="10" fill="#aaa">0.0008</text>
<text x="442.5" y="364" text-anchor="middle" font-family="Helvetica,Arial,sans-serif" font-size="10" fill="#aaa">0.0016</text>
<text x="616.3" y="364" text-anchor="middle" font-family="Helvetica,Arial,sans-serif" font-size="10" fill="#aaa">0.0024</text>
<text x="790.0" y="364" text-anchor="middle" font-family="Helvetica,Arial,sans-serif" font-size="10" fill="#aaa">0.0032</text>
<text x="84" y="348.0" text-anchor="end" font-family="Helvetica,Arial,sans-serif" font-size="10" fill="#aaa">-0.03</text>
<text x="84" y="278.0" text-anchor="end" font-family="Helvetica,Arial,sans-serif" font-size="10" fill="#aaa">+0.07</text>
<text x="84" y="208.0" text-anchor="end" font-family="Helvetica,Arial,sans-serif" font-size="10" fill="#aaa">+0.17</text>
<text x="84" y="138.0" text-anchor="end" font-family="Helvetica,Arial,sans-serif" font-size="10" fill="#aaa">+0.27</text>
<text x="84" y="68.0" text-anchor="end" font-family="Helvetica,Arial,sans-serif" font-size="10" fill="#aaa">+0.37</text>
</svg>